<?xml version="1.0" encoding="UTF-8"?>
<svg xmlns="http://www.w3.org/2000/svg" id="Layer_1" data-name="Layer 1" viewBox="0 0 134 88.95">
  <path d="M134,89c-.44,0-.87,0-1.31,0H1.31c-.44,0-.87,0-1.31,0V76.65c.44,0,.87,0,1.31,0H132.69c.44,0,.87,0,1.31,0ZM4.18,84.7H129.77v-4H128c-14.66,0-29.31,0-44,0-1.29,0-2.2.26-2.7,1.48-.42,1-1.19,1.17-2.21,1.16q-12,0-23.94,0c-1.22,0-2.12-.21-2.61-1.39a2.11,2.11,0,0,0-2.3-1.25q-22.24,0-44.49,0H4.18Z"></path>
  <path d="M120.35,71.08H13.65v-56c0-3.63,1.86-5.49,5.46-5.49h95.76c3.61,0,5.47,1.86,5.48,5.47v56ZM116.17,67c0-.39,0-.64,0-.9q0-25.45,0-50.9c0-1.34-.61-1.47-1.67-1.47q-47.56,0-95.13,0c-1.34,0-1.68.43-1.68,1.73,0,16.75,0,33.5,0,50.25,0,.42,0,.84.06,1.3Z"></path>
  <path d="M128.52,73.16h-4.1V71.5q0-31.26,0-62.53c0-.57,0-1.14,0-1.7a3.32,3.32,0,0,0-3.27-3.12c-.35,0-.69,0-1,0H14a11.29,11.29,0,0,0-1.3,0,3.32,3.32,0,0,0-3,3c-.06.6-.05,1.21-.05,1.82q0,31.22,0,62.41v1.76h-4c0-.44-.07-.89-.07-1.35V8.06c0-4.88,3.15-8,8-8h107c4.87,0,8,3.16,8,8V73.16Z"></path>
  <path d="M68.53,7.22c-.52.33-1,.85-1.56.93-.78.1-1.3-.45-1.29-1.29s.58-1.46,1.4-1.31c.54.1,1,.7,1.47,1.08Z"></path>
</svg>
